<svg width="1440" height="1024" viewBox="0 0 1440 1024" fill="none" xmlns="http://www.w3.org/2000/svg">
<rect width="1440" height="1024" fill="#FC565D"/>
<path opacity="0.8" d="M503.226 460.844H536.284V500H527.572V468.685H511.89V500H503.226V460.844ZM558.081 460.022C568.778 460.022 576.764 467.572 576.764 480.398C576.764 493.805 568.294 500.726 558.081 500.726C547.869 500.726 539.447 493.756 539.447 480.398C539.447 467.33 547.869 460.022 558.081 460.022ZM558.081 492.643C563.938 492.643 568.294 488.82 568.294 480.398C568.294 472.025 563.889 468.153 558.081 468.153C552.322 468.153 547.869 472.025 547.869 480.398C547.869 488.82 552.273 492.643 558.081 492.643ZM604.672 479.478C608.06 481.56 609.948 484.609 609.948 488.094C609.948 495.789 603.898 500.726 594.508 500.726C585.844 500.726 578.197 495.547 578.197 488.094V487.319H586.377V488.094C586.328 491.578 590.781 493.03 594.121 492.982C597.654 492.982 601.381 490.852 601.284 488.142C601.139 484.851 599.445 483.012 592.282 483.012V476.478C598.186 476.284 600.461 474.3 600.461 471.976C600.461 469.46 596.88 467.911 594.508 467.911C590.926 467.911 588.022 469.702 588.022 472.654V473.428H579.843V472.654C579.843 465.2 585.022 460.022 593.685 460.022C603.075 460.022 609.125 465.007 609.125 472.654C609.125 475.413 607.431 477.736 604.672 479.478ZM638.331 492.159V468.685H628.99V473.525C628.99 482.092 627.15 487.997 625.166 492.159H638.331ZM647.043 492.159H653.093V507.841H645.3V500H618.68V507.841H610.888V492.159C615.873 492.159 619.552 492.159 615.534 492.159C618.922 492.159 621.342 482.721 621.342 472.122V460.844C625.65 460.844 642.058 460.844 647.043 460.844V492.159ZM673.571 460.844C682.041 460.844 686.445 467.33 686.445 473.477C686.445 481.56 680.347 485.964 673.909 485.964H664.133V500H655.469V460.844H661.229H673.571ZM673.377 478.365C676.523 478.365 678.846 476.478 678.846 473.477C678.846 470.476 676.378 468.443 673.377 468.443H664.133V478.365H673.377ZM711.62 500L708.571 491.917H694.147L691.098 500H682.87L697.245 460.844H706.344L719.848 500H711.62ZM696.858 484.706H705.86L701.359 472.799L696.858 484.706ZM721.783 460.844H738.093C745.305 460.844 750.339 466.604 750.339 472.315C750.339 477.155 747.047 480.495 745.741 480.495C749.419 480.495 753.194 484.464 753.194 489.497C753.194 494.821 749.032 500 741.82 500H721.783V460.844ZM730.446 468.443V476.623H738.819C741.046 476.623 742.837 474.735 742.837 472.557C742.837 470.379 740.949 468.443 738.868 468.443H730.446ZM741.288 492.401C743.514 492.401 745.305 490.61 745.305 488.384C745.305 486.109 743.466 484.222 741.191 484.222H730.446V492.401H741.288ZM761.808 460.844H787.169V499.952H778.651V468.637H769.068V477.494C769.068 483.98 769.068 496.757 760.888 499.613C759.097 500.242 756.726 500.048 753.676 499.855V492.111C755.903 492.304 757.548 492.159 758.662 491.53C761.759 489.836 761.808 479.43 761.808 475.655V460.844ZM789.75 500L798.946 485.044C794.348 483.302 791.396 478.51 791.396 473.477C791.396 466.991 796.623 460.844 805.141 460.844H823.291V500H814.579V485.916C814.579 485.916 813.611 485.916 807.416 485.916L799.672 500H789.75ZM804.464 478.317H814.579V468.443H804.464C801.463 468.443 798.995 470.428 798.995 473.477C798.995 476.478 801.463 478.317 804.464 478.317ZM827.799 460.844H855.775V468.685H836.269V475.655L852.532 475.752V483.544L836.269 483.496V492.208H855.775V500H827.799V460.844ZM890.122 460.844H899.221V500H890.993V477.591L882.232 500H875.747L866.986 477.542V500H858.758V460.844H867.809L878.99 491.675L890.122 460.844ZM909.419 487.319H905.838L903.66 460.844H911.646L909.419 487.319ZM911.113 500H904.144V492.982H911.113V500ZM921.897 487.319H918.316L916.138 460.844H924.124L921.897 487.319ZM923.591 500H916.622V492.982H923.591V500ZM934.375 487.319H930.794L928.616 460.844H936.602L934.375 487.319ZM936.069 500H929.1V492.982H936.069V500Z" fill="white"/>
<path d="M503.434 537.464H521.615V559H516.823V541.777H508.198V559H503.434V537.464ZM533.604 537.012C539.487 537.012 543.879 541.165 543.879 548.219C543.879 555.593 539.221 559.399 533.604 559.399C527.987 559.399 523.355 555.566 523.355 548.219C523.355 541.031 527.987 537.012 533.604 537.012ZM533.604 554.954C536.825 554.954 539.221 552.851 539.221 548.219C539.221 543.614 536.798 541.484 533.604 541.484C530.436 541.484 527.987 543.614 527.987 548.219C527.987 552.851 530.409 554.954 533.604 554.954ZM566.948 537.464H571.447V559H545.599V537.464H550.071V554.714H556.274V537.464H560.746V554.714H566.948V537.464ZM577.049 537.464H590.998V558.973H586.313V541.75H581.042V546.622C581.042 550.189 581.042 557.216 576.544 558.787C575.559 559.133 574.254 559.027 572.577 558.92V554.661C573.802 554.767 574.707 554.688 575.319 554.341C577.023 553.41 577.049 547.686 577.049 545.61V537.464ZM593.536 537.464H598.061V551.546L608.496 537.464H613.022V559H608.496V544.812L598.061 559H593.536V537.464ZM638.283 559L631.521 549.577L629.179 552.132V559H624.653V537.464H629.179V546.409L637.378 537.464H642.648L634.556 546.249L643.607 559H638.283ZM649.305 537.464V545.61H658.383V537.464H663.174V559H658.383V549.923H649.305V559H644.54V537.464H649.305ZM665.675 537.464H670.201V551.546L680.636 537.464H685.161V559H680.636V544.812L670.201 559H665.675V537.464ZM692.22 559H687.642V537.464H702.922V541.777H692.22V559ZM717.282 537.491H722.872L712.411 559H707.033L710.148 552.105L703.387 537.491H708.95L712.863 546.888L717.282 537.491Z" fill="white" fill-opacity="0.8"/>
<path d="M733.005 537.464H751.186V559H746.395V541.777H737.77V559H733.005V537.464ZM763.175 537.012C769.058 537.012 773.451 541.165 773.451 548.219C773.451 555.593 768.792 559.399 763.175 559.399C757.558 559.399 752.927 555.566 752.927 548.219C752.927 541.031 757.558 537.012 763.175 537.012ZM763.175 554.954C766.396 554.954 768.792 552.851 768.792 548.219C768.792 543.614 766.37 541.484 763.175 541.484C760.007 541.484 757.558 543.614 757.558 548.219C757.558 552.851 759.981 554.954 763.175 554.954ZM789.945 550.322H794.816C793.991 556.338 789.732 559.399 784.674 559.399C779.057 559.399 774.425 555.566 774.425 548.219C774.425 541.031 779.057 537.012 784.674 537.012C789.758 537.012 793.698 540.126 794.71 545.477H789.732C789.173 542.788 787.15 541.484 784.674 541.484C781.506 541.484 779.057 543.614 779.057 548.219C779.057 552.851 781.48 554.954 784.674 554.954C787.363 554.954 789.599 553.463 789.945 550.322ZM813.633 537.464H818.638V559H814.112V546.675L809.294 559H805.727L800.909 546.648V559H796.383V537.464H801.361L807.511 554.421L813.633 537.464ZM830.609 537.012C836.492 537.012 840.884 541.165 840.884 548.219C840.884 555.593 836.226 559.399 830.609 559.399C824.992 559.399 820.36 555.566 820.36 548.219C820.36 541.031 824.992 537.012 830.609 537.012ZM830.609 554.954C833.83 554.954 836.226 552.851 836.226 548.219C836.226 543.614 833.804 541.484 830.609 541.484C827.441 541.484 824.992 543.614 824.992 548.219C824.992 552.851 827.415 554.954 830.609 554.954ZM841.597 537.464H861.376V541.777H853.869V559H849.104V541.777H841.597V537.464ZM873.045 537.464C877.704 537.464 880.126 541.031 880.126 544.412C880.126 548.858 876.772 551.28 873.232 551.28H867.854V559H863.089V537.464H866.257H873.045ZM872.939 547.101C874.669 547.101 875.947 546.063 875.947 544.412C875.947 542.762 874.589 541.644 872.939 541.644H867.854V547.101H872.939ZM881.573 537.464H886.098V551.546L896.533 537.464H901.059V559H896.533V544.812L886.098 559H881.573V537.464ZM920.789 537.464H925.794V559H921.268V546.675L916.45 559H912.883L908.065 546.648V559H903.539V537.464H908.517L914.667 554.421L920.789 537.464Z" fill="white"/>
<path d="M731.78 560.304H927.045V561.609H731.78V560.304Z" fill="white"/>
</svg>
