<svg width="715" height="614" viewBox="0 0 715 614" fill="none" xmlns="http://www.w3.org/2000/svg">
<path fill-rule="evenodd" clip-rule="evenodd" d="M449.267 454.321L714.373 248.453L592.215 105.832L449.267 208.086L449.267 0L266.005 0L266.004 208.086L123.057 105.832L0.898144 248.453L266.004 454.321L266.004 613.069H293.622L357.66 612.464L421.648 613.069H449.266L449.267 454.321ZM428.755 592.633L428.755 444.339L684.852 245.468L588.856 133.392L428.755 247.915L428.756 20.4356L286.516 20.4356L286.516 247.915L126.415 133.392L30.4196 245.468L286.515 444.339L286.515 592.633H293.527L357.66 592.027L421.744 592.633H428.755Z" fill="#31CFF4"/>
</svg>
