<svg width="70" height="60" viewBox="0 0 70 60" fill="none" xmlns="http://www.w3.org/2000/svg">
<path d="M69.9568 24.2459L44.1813 44.3361V59.8279H41.4961L35.2748 59.7689L29.0486 59.8279H26.3633V44.3361L0.587891 24.2459L12.4649 10.3279L26.3633 20.3066V0H44.1813V20.3066L58.0797 10.3279L69.9568 24.2459Z" fill="black"/>
<path d="M19.3167 24.4298H24.0193V30H22.78V25.5452H20.5492V30H19.3167V24.4298ZM27.1202 24.3128C28.6419 24.3128 29.7779 25.3869 29.7779 27.2115C29.7779 29.1187 28.573 30.1033 27.1202 30.1033C25.6674 30.1033 24.4694 29.1118 24.4694 27.2115C24.4694 25.3525 25.6674 24.3128 27.1202 24.3128ZM27.1202 28.9534C27.9533 28.9534 28.573 28.4095 28.573 27.2115C28.573 26.0203 27.9465 25.4695 27.1202 25.4695C26.3009 25.4695 25.6674 26.0203 25.6674 27.2115C25.6674 28.4095 26.294 28.9534 27.1202 28.9534ZM34.6845 24.4298H35.9789V30H34.8084V26.8121L33.5622 30H32.6396L31.3933 26.8052V30H30.2228V24.4298H31.5104L33.1009 28.8157L34.6845 24.4298ZM39.0753 24.3128C40.5969 24.3128 41.733 25.3869 41.733 27.2115C41.733 29.1187 40.5281 30.1033 39.0753 30.1033C37.6225 30.1033 36.4245 29.1118 36.4245 27.2115C36.4245 25.3525 37.6225 24.3128 39.0753 24.3128ZM39.0753 28.9534C39.9084 28.9534 40.5281 28.4095 40.5281 27.2115C40.5281 26.0203 39.9015 25.4695 39.0753 25.4695C38.2559 25.4695 37.6225 26.0203 37.6225 27.2115C37.6225 28.4095 38.2491 28.9534 39.0753 28.9534ZM44.8563 24.4298H46.0956V30H44.8563V27.48C44.4156 27.7761 43.7202 27.7761 43.7202 27.7761C42.7012 27.7761 41.9438 27.1977 41.9438 26.1787V24.4298H43.073V26.0479C43.073 26.523 43.4723 26.7295 43.9336 26.7295C44.3881 26.7295 44.8563 26.5161 44.8563 26.0479V24.4298ZM49.0432 26.6744C50.7095 26.6744 51.2603 27.4318 51.2603 28.3682C51.2603 29.8141 49.9383 30 48.7678 30H46.7367V24.4298H47.9691V26.6744H49.0432ZM50.0967 28.3475V28.1961C50.0967 27.8311 49.7386 27.5351 49.1878 27.5351H47.9898V29.0085H49.1878C49.7386 29.0085 50.0967 28.7125 50.0967 28.3475Z" fill="white"/>
</svg>
