<svg width="714" height="655" viewBox="0 0 714 655" fill="none" xmlns="http://www.w3.org/2000/svg">
<path fill-rule="evenodd" clip-rule="evenodd" d="M448.634 454.791L713.74 248.923L591.582 106.302L448.634 208.555L448.634 0.46995L265.372 0.470058L265.372 208.556L122.424 106.302L0.265478 248.923L265.371 454.791L265.371 613.539L292.99 613.539L357.028 612.934L421.016 613.539L448.634 613.538L448.634 454.791ZM428.122 593.103L428.123 444.809L684.219 245.938L588.223 133.862L428.123 248.385L428.123 20.9056L285.883 20.9057L285.883 248.385L125.783 133.862L29.7869 245.938L285.883 444.809L285.883 593.103L292.894 593.103L357.028 592.497L421.111 593.103L428.122 593.103Z" fill="white"/>
<path d="M118.352 196.677C128.085 204.267 127.852 211.199 123.587 216.669C117.001 225.114 108.432 220.179 101.595 214.847L89.7314 205.595L115.104 173.06L138.832 191.564L133.751 198.079L117.222 185.189L112.078 191.784L118.352 196.677ZM116.884 211.248L117.574 210.363C119.236 208.232 118.494 204.872 115.276 202.363L108.279 196.905L101.567 205.512L108.565 210.969C111.782 213.478 115.222 213.379 116.884 211.248ZM148.676 199.24L169.749 215.674L144.408 248.169L137.33 242.65L157.622 216.629L149.659 210.419L143.919 217.779C139.717 223.168 131.437 233.786 122.79 230.858C120.894 230.22 119.049 228.523 116.641 226.386L121.659 219.951C123.384 221.555 124.845 222.501 126.178 222.699C129.849 223.299 136.632 214.683 139.079 211.547L148.676 199.24ZM173.583 218.664L180.42 223.995L163.829 245.27L196.185 236.289L203.022 241.621L177.65 274.157L170.813 268.825L187.529 247.389L155.048 256.531L148.211 251.199L173.583 218.664ZM246.303 275.373L226.158 284.951L220.81 307.815L213.209 301.887L217.278 282.488L214.543 280.356L203.597 294.391L197.002 289.248L207.947 275.212L205.213 273.08L187.39 281.752L179.789 275.825L200.62 265.036L205.041 243.195L212.963 249.374L209.478 267.61L212.213 269.743L222.374 256.713L228.97 261.856L218.808 274.886L221.543 277.019L238.38 269.195L246.303 275.373ZM245.179 326.818L247.882 318.126L235.898 308.78L228.127 313.52L221.29 308.188L258.606 284.968L266.167 290.864L252.015 332.149L245.179 326.818ZM242.823 304.544L250.303 310.377L254.278 297.567L242.823 304.544ZM301.597 318.493L308.434 323.825L283.062 356.36L276.225 351.029L292.941 329.593L260.46 338.735L253.623 333.403L278.995 300.868L285.832 306.199L269.242 327.474L301.597 318.493ZM294.217 311.703C290.356 308.692 289.142 303.283 292.529 298.939L292.614 298.747L296.716 301.946L296.591 302.107C294.991 304.158 295.753 306.498 297.321 307.721C298.89 308.944 301.345 309.113 302.945 307.062L303.07 306.901L307.132 310.069L307.007 310.23C303.62 314.573 298.077 314.714 294.217 311.703ZM344.475 351.931L351.272 357.231L325.9 389.767L286.849 359.314L312.221 326.778L318.978 332.047L298.655 358.108L308.026 365.415L328.348 339.355L335.105 344.624L314.782 370.684L324.153 377.992L344.475 351.931ZM355.03 360.162L361.867 365.494L345.277 386.768L377.632 377.788L384.469 383.119L359.097 415.655L352.26 410.323L368.976 388.888L336.495 398.029L329.658 392.698L355.03 360.162ZM388.217 386.042L411.463 404.17L406.382 410.685L390.175 398.046L385.658 403.837L399.108 414.455L394.059 420.93L380.578 410.352L374.932 417.591L391.14 430.23L386.09 436.705L362.845 418.578L388.217 386.042ZM110.417 232.811L117.977 238.707L92.6053 271.242L85.7684 265.911L100.289 247.29L78.4892 260.234L73.1001 256.032L80.373 231.694L65.8208 250.355L58.9839 245.024L84.3561 212.488L91.8767 218.353L81.1889 251.216L110.417 232.811ZM121.706 241.615L144.951 259.742L139.871 266.257L123.663 253.618L119.147 259.409L132.597 270.028L127.548 276.503L114.066 265.925L108.421 273.164L124.629 285.803L119.579 292.278L96.3338 274.15L121.706 241.615ZM162.472 273.405C169.51 278.894 168.967 287.137 164.984 292.244C159.746 298.96 151.825 298.668 146.476 294.497L138.352 288.162L129.257 299.825L122.059 294.211L147.431 261.676L152.217 265.408L162.472 273.405ZM150.958 287.838C153.572 289.877 156.725 289.814 158.67 287.32C160.614 284.827 159.881 281.538 157.387 279.594L149.706 273.603L143.276 281.848L150.958 287.838ZM190.245 293.964C199.133 300.895 200.877 312.344 192.566 323.001C183.878 334.142 172.355 334.404 163.87 327.787C155.384 321.169 152.902 309.921 161.558 298.821C170.026 287.963 181.76 287.347 190.245 293.964ZM169.107 321.07C173.973 324.865 180.07 324.511 185.528 317.513C190.953 310.556 189.802 304.484 184.976 300.721C180.191 296.989 173.982 297.321 168.556 304.278C163.099 311.276 164.281 317.307 169.107 321.07ZM207.835 308.78L235.303 330.201L209.931 362.736L202.692 357.091L222.983 331.071L209.953 320.909L189.661 346.93L182.462 341.316L207.835 308.78ZM254.099 344.859C261.137 350.347 260.594 358.59 256.611 363.698C251.373 370.414 243.452 370.122 238.103 365.951L229.979 359.616L220.884 371.278L213.686 365.665L239.058 333.129L243.844 336.861L254.099 344.859ZM242.585 359.292C245.199 361.33 248.352 361.267 250.297 358.774C252.241 356.28 251.508 352.992 249.014 351.047L241.333 345.057L234.903 353.302L242.585 359.292ZM266.982 354.905L273.819 360.237L257.228 381.512L289.584 372.531L296.421 377.862L271.048 410.398L264.211 405.066L280.928 383.631L248.446 392.772L241.61 387.441L266.982 354.905ZM273.107 412.004L290.439 405.535C287.748 401.108 288.4 395.214 291.661 391.031C295.864 385.642 304.19 383.922 311.268 389.441L326.35 401.202L300.978 433.738L293.739 428.092L302.865 416.389C302.865 416.389 302.061 415.762 296.913 411.748L281.352 418.433L273.107 412.004ZM299.384 403.521L307.789 410.075L314.187 401.871L305.782 395.316C303.288 393.372 299.951 393.421 297.975 395.955C296.031 398.448 296.89 401.576 299.384 403.521ZM329.281 403.488L359.162 426.79L354.081 433.305L342.74 424.461L322.449 450.482L315.25 444.868L335.541 418.847L324.2 410.003L329.281 403.488ZM361.751 428.809L368.588 434.141L351.997 455.415L384.353 446.435L391.19 451.766L365.817 484.302L358.98 478.97L375.697 457.534L343.215 466.676L336.379 461.344L361.751 428.809ZM367.876 485.907L385.208 479.439C382.517 475.012 383.169 469.117 386.43 464.935C390.633 459.546 398.959 457.825 406.037 463.345L421.119 475.106L395.747 507.641L388.508 501.996L397.634 490.293C397.634 490.293 396.83 489.666 391.682 485.651L376.121 492.337L367.876 485.907ZM394.153 477.424L402.558 483.979L408.956 475.775L400.55 469.22C398.057 467.276 394.72 467.325 392.744 469.859C390.8 472.352 391.659 475.48 394.153 477.424Z" fill="white"/>
</svg>
