<svg width="714" height="614" viewBox="0 0 714 614" fill="none" xmlns="http://www.w3.org/2000/svg">
<path fill-rule="evenodd" clip-rule="evenodd" d="M448.368 454.321L713.474 248.453L591.316 105.832L448.368 208.086V0L265.106 0V208.086L122.158 105.832L0 248.453L265.106 454.321L265.106 613.069H292.724L356.762 612.464L420.75 613.069H448.368L448.368 454.321ZM427.857 592.633L427.857 444.339L683.953 245.468L587.957 133.392L427.857 247.915V20.4356L285.617 20.4356V247.915L125.517 133.392L29.5214 245.468L285.617 444.339L285.617 592.633H292.629L356.763 592.028L420.846 592.633H427.857Z" fill="white"/>
<path d="M334.591 513.33C334.591 504.405 341.425 499.764 347.902 499.764C356.419 499.764 361.06 506.19 361.06 512.973L361.06 523.275L375.85 523.275L375.85 532.404L334.591 532.404L334.591 526.335L334.591 513.33ZM353.053 513.534C353.053 510.219 351.064 507.771 347.902 507.771C344.74 507.771 342.598 510.372 342.598 513.534L342.598 523.275L353.053 523.275L353.053 513.534ZM375.85 473.237L367.333 476.45L367.333 491.648L375.85 494.861L375.85 503.531L334.591 488.384L334.591 478.796L375.85 464.567L375.85 473.237ZM359.734 488.792L359.734 479.306L347.188 484.049L359.734 488.792ZM351.217 445.443C351.217 433.101 356.827 429.021 363.763 429.021C374.473 429.021 375.85 438.813 375.85 447.483L375.85 462.528L334.591 462.528L334.591 432.438L342.853 432.438L342.853 453.399L351.217 453.399L351.217 445.443ZM363.61 437.64L362.488 437.64C359.785 437.64 357.592 440.292 357.592 444.372L357.592 453.246L368.506 453.246L368.506 444.372C368.506 440.292 366.313 437.64 363.61 437.64ZM333.724 407.715C333.724 396.444 341.68 388.029 355.195 388.029C369.322 388.029 376.615 396.954 376.615 407.715C376.615 418.476 369.271 427.35 355.195 427.35C341.425 427.35 333.724 418.476 333.724 407.715ZM368.098 407.715C368.098 401.544 364.069 396.954 355.195 396.954C346.372 396.954 342.292 401.595 342.292 407.715C342.292 413.784 346.372 418.476 355.195 418.476C364.069 418.476 368.098 413.835 368.098 407.715ZM334.591 386.663L334.591 348.77L342.853 348.77L342.853 363.152L375.85 363.152L375.85 372.281L342.853 372.281L342.853 386.663L334.591 386.663ZM334.591 307.747L334.591 298.618L375.85 298.618L375.85 307.747L334.591 307.747ZM351.217 328.402C351.217 316.06 356.827 311.98 363.763 311.98C374.473 311.98 375.85 321.772 375.85 330.442L375.85 345.487L334.591 345.487L334.591 336.358L351.217 336.358L351.217 328.402ZM363.61 320.599L362.488 320.599C359.785 320.599 357.592 323.251 357.592 327.331L357.592 336.205L368.506 336.205L368.506 327.331C368.506 323.251 366.313 320.599 363.61 320.599ZM375.85 250.246L357.796 263.2L362.692 267.688L375.85 267.688L375.85 276.358L334.591 276.358L334.591 267.688L351.727 267.688L334.591 251.98L334.591 241.882L351.421 257.386L375.85 240.046L375.85 250.246ZM334.642 214.492L334.642 203.782L375.85 223.825L375.85 234.127L362.641 228.16L334.642 241.114L334.642 230.455L352.645 222.958L334.642 214.492ZM334.591 182.826C334.591 173.901 341.425 169.26 347.902 169.26C356.419 169.26 361.06 175.686 361.06 182.469L361.06 192.771L375.85 192.771L375.85 201.9L334.591 201.9L334.591 195.831L334.591 182.826ZM353.053 183.03C353.053 179.715 351.064 177.267 347.902 177.267C344.74 177.267 342.598 179.868 342.598 183.03L342.598 192.771L353.053 192.771L353.053 183.03ZM334.591 166.489L334.591 157.819L361.57 157.819L334.591 137.827L334.591 129.157L375.85 129.157L375.85 137.827L348.667 137.827L375.85 157.819L375.85 166.489L334.591 166.489ZM367.639 90.489L367.639 84.063L384.112 84.063L384.112 92.325L375.901 92.325L375.901 124.404L334.591 124.404L334.591 115.836L367.639 115.836L367.639 99.108L334.591 99.108L334.591 90.489L367.639 90.489Z" fill="white"/>
</svg>
