<svg width="714" height="614" viewBox="0 0 714 614" fill="none" xmlns="http://www.w3.org/2000/svg">
<path fill-rule="evenodd" clip-rule="evenodd" d="M448.635 454.791L713.741 248.923L591.582 106.302L448.634 208.555L448.634 0.469991L265.372 0.469883L265.372 208.555L122.424 106.302L0.265772 248.923L265.372 454.791L265.372 613.538L292.99 613.538L357.029 612.934L421.016 613.539L448.635 613.539L448.635 454.791ZM428.123 593.103L428.123 444.809L684.219 245.938L588.223 133.862L428.123 248.385L428.123 20.9056L285.883 20.9055L285.883 248.385L125.783 133.862L29.7872 245.938L285.883 444.809L285.883 593.103L292.895 593.103L357.029 592.497L421.112 593.103L428.123 593.103Z" fill="white"/>
<path d="M324.531 366.682C333.075 360.141 344.843 360.83 353.214 371.764C361.771 382.94 359.148 394.197 350.604 400.739C342.91 406.629 332.865 406.933 324.644 398.711L331.852 393.192C336.23 397.484 341.337 397.107 345.427 393.976C349.76 390.659 351.208 385.503 347.68 379.469L336.949 387.685L332.732 382.177L343.261 374.117C338.653 370.194 333.748 370.416 329.739 373.485C325.973 376.369 324.355 380.883 326.534 385.574L319.164 391.217C314.399 381.89 316.796 372.604 324.531 366.682ZM389.171 370.249L367.91 363.788L367.323 370.404L375.322 380.851L368.438 386.122L343.357 353.361L350.241 348.091L360.658 361.697L362.713 338.542L370.731 332.404L368.652 355.192L397.27 364.048L389.171 370.249ZM408.567 334.46L415.977 328.787C421.729 338.9 418.815 348.517 411.121 354.408C402.576 360.949 391.066 360.512 382.509 349.336C374.138 338.402 376.503 326.893 385.047 320.351C392.782 314.43 402.403 314.58 410.173 321.541L402.6 327.338C398.619 323.899 394.022 324.271 390.256 327.155C385.437 330.844 384.192 336.936 389.555 343.941C394.949 350.988 401.084 351.365 405.943 347.645C410.033 344.514 411.699 339.642 408.567 334.46ZM449.202 324.29L427.941 317.829L427.354 324.445L435.352 334.893L428.468 340.163L403.387 307.403L410.271 302.132L420.688 315.739L422.744 292.583L430.762 286.445L428.682 309.233L457.301 318.089L449.202 324.29ZM452.541 269.835L461.045 263.324L470.181 308.228L462.001 314.491L458.709 300.375L431.403 286.018L439.867 279.539L456.763 289.276L452.541 269.835ZM477.653 250.545C484.74 245.12 492.579 247.725 496.517 252.868C501.694 259.63 499.413 267.222 494.027 271.345L485.847 277.608L494.838 289.351L487.589 294.901L462.508 262.14L467.327 258.451L477.653 250.545ZM488.714 265.328C491.347 263.313 492.081 260.246 490.159 257.735C488.237 255.224 484.87 255.105 482.359 257.027L474.624 262.948L480.98 271.25L488.714 265.328ZM528.074 242.967L535.485 237.293C541.236 247.406 538.322 257.023 530.628 262.914C522.084 269.455 510.573 269.019 502.017 257.842C493.646 246.908 496.011 235.399 504.555 228.858C512.29 222.936 521.91 223.086 529.68 230.047L522.108 235.845C518.126 232.406 513.53 232.778 509.763 235.661C504.945 239.35 503.699 245.442 509.063 252.448C514.457 259.494 520.591 259.872 525.451 256.151C529.541 253.02 531.206 248.148 528.074 242.967ZM522.895 215.909L529.779 210.638L546.179 232.06L545.653 198.485L552.537 193.215L577.618 225.975L570.734 231.246L554.21 209.662L554.86 243.399L547.976 248.669L522.895 215.909ZM579.691 224.388L577.806 205.985C572.842 207.472 567.303 205.354 564.079 201.143C559.924 195.717 560.361 187.225 567.488 181.769L582.673 170.143L607.754 202.904L600.465 208.484L591.444 196.7C591.444 196.7 590.634 197.32 585.45 201.288L587.993 218.033L579.691 224.388ZM578.113 196.822L586.576 190.342L580.252 182.081L571.788 188.561C569.277 190.483 568.483 193.724 570.436 196.276C572.359 198.786 575.602 198.744 578.113 196.822ZM341.482 417.768L369.14 396.593L394.221 429.353L386.932 434.934L366.873 408.733L353.753 418.778L373.811 444.979L366.563 450.528L341.482 417.768ZM386.85 381.942C395.8 375.09 407.318 376.292 415.534 387.023C424.121 398.24 421.468 409.457 412.924 415.998C404.379 422.54 392.869 422.103 384.312 410.926C375.941 399.993 378.306 388.483 386.85 381.942ZM407.746 409.236C412.646 405.484 413.841 399.495 408.447 392.449C403.083 385.443 396.918 385.025 392.059 388.745C387.24 392.434 385.995 398.526 391.358 405.532C396.752 412.578 402.887 412.956 407.746 409.236ZM452.022 333.139L458.866 327.899L483.947 360.66L444.626 390.763L419.545 358.003L426.348 352.795L446.438 379.035L455.873 371.812L435.784 345.571L442.587 340.362L462.677 366.603L472.112 359.38L452.022 333.139ZM508.465 341.889L487.204 335.429L486.617 342.044L494.616 352.492L487.731 357.763L462.65 325.002L469.534 319.732L479.951 333.338L482.007 310.183L490.025 304.044L487.945 326.833L516.564 335.689L508.465 341.889ZM504.341 291.992C513.291 285.141 524.809 286.342 533.024 297.074C541.612 308.291 538.959 319.507 530.414 326.048C521.87 332.59 510.359 332.153 501.803 320.977C493.432 310.043 495.797 298.534 504.341 291.992ZM525.237 319.286C530.137 315.535 531.332 309.545 525.938 302.499C520.574 295.493 514.409 295.075 509.55 298.795C504.731 302.485 503.485 308.576 508.849 315.582C514.243 322.628 520.377 323.006 525.237 319.286ZM527.458 275.386L548.678 259.14L573.728 291.86L566.601 297.317L546.542 271.117L538.524 277.255L544.198 284.666C548.352 290.092 556.537 300.783 551.522 308.411C550.427 310.085 548.318 311.442 545.643 313.233L540.683 306.754C542.67 305.49 543.953 304.314 544.482 303.075C545.988 299.673 539.363 290.936 536.945 287.777L527.458 275.386ZM552.538 256.185L575.944 238.266L580.967 244.826L564.647 257.32L569.111 263.151L582.78 252.815L587.771 259.335L574.134 269.711L579.714 277L596.034 264.506L601.025 271.026L577.619 288.945L552.538 256.185Z" fill="white"/>
</svg>
