<svg width="714" height="614" viewBox="0 0 714 614" fill="none" xmlns="http://www.w3.org/2000/svg">
<path fill-rule="evenodd" clip-rule="evenodd" d="M448.466 454.997L713.573 249.129L591.414 106.508L448.466 208.762L448.466 0.676054L265.204 0.676142L265.204 208.762L122.256 106.508L0.0975369 249.129L265.204 454.997L265.204 613.745L292.822 613.745L356.86 613.14L420.848 613.744L448.466 613.744L448.466 454.997ZM427.955 593.309L427.955 445.015L684.051 246.144L588.055 134.068L427.955 248.591L427.955 21.1117L285.715 21.1117L285.715 248.591L125.615 134.068L29.619 246.144L285.715 445.015L285.715 593.309L292.727 593.309L356.86 592.703L420.943 593.309L427.955 593.309Z" fill="white"/>
<path d="M337.13 503.893L337.13 494.305L378.389 494.305L378.389 502.975L354.776 502.975L378.389 512.206L378.389 519.04L354.725 528.271L378.389 528.271L378.389 536.941L337.13 536.941L337.13 527.404L369.617 515.623L337.13 503.893ZM378.389 461.986L369.872 465.199L369.872 480.397L378.389 483.61L378.389 492.28L337.13 477.133L337.13 467.545L378.389 453.316L378.389 461.986ZM362.273 477.541L362.273 468.055L349.727 472.798L362.273 477.541ZM378.389 442.505L378.389 451.277L337.13 451.277L337.13 422.003L345.392 422.003L345.392 442.505L378.389 442.505ZM378.389 397.588L369.872 400.801L369.872 415.999L378.389 419.212L378.389 427.882L337.13 412.735L337.13 403.147L378.389 388.918L378.389 397.588ZM362.273 413.143L362.273 403.657L349.727 408.4L362.273 413.143ZM356.765 361.216C358.958 357.646 362.171 355.657 365.843 355.657C373.952 355.657 379.154 362.032 379.154 371.926C379.154 381.055 373.697 389.113 365.843 389.113L365.027 389.113L365.027 380.494L365.843 380.494C369.515 380.545 371.045 375.853 370.994 372.334C370.994 368.611 368.75 364.684 365.894 364.786C362.426 364.939 360.488 366.724 360.488 374.272L353.603 374.272C353.399 368.05 351.308 365.653 348.86 365.653C346.208 365.653 344.576 369.427 344.576 371.926C344.576 375.7 346.463 378.76 349.574 378.76L350.39 378.76L350.39 387.379L349.574 387.379C341.72 387.379 336.263 381.922 336.263 372.793C336.263 362.899 341.516 356.524 349.574 356.524C352.481 356.524 354.929 358.309 356.765 361.216ZM337.13 352.116L337.13 343.446L364.109 343.446L337.13 323.454L337.13 314.784L378.389 314.784L378.389 323.454L351.206 323.454L378.389 343.446L378.389 352.116L337.13 352.116ZM337.13 300.902L352.736 300.902L352.736 283.511L337.13 283.511L337.13 274.331L378.389 274.331L378.389 283.511L360.998 283.511L360.998 300.902L378.389 300.902L378.389 310.031L337.13 310.031L337.13 300.902ZM337.13 218.96L337.13 209.372L378.389 209.372L378.389 218.042L354.776 218.042L378.389 227.273L378.389 234.107L354.725 243.338L378.389 243.338L378.389 252.008L337.13 252.008L337.13 242.471L369.617 230.69L337.13 218.96ZM337.13 204.644L337.13 175.166L345.392 175.166L345.392 195.719L352.736 195.719L352.838 178.583L361.049 178.583L360.998 195.719L370.178 195.719L370.178 175.166L378.389 175.166L378.389 204.644L337.13 204.644ZM337.13 152.948C337.13 144.023 343.964 139.382 350.441 139.382C358.958 139.382 363.599 145.808 363.599 152.591L363.599 162.893L378.389 162.893L378.389 172.022L337.13 172.022L337.13 165.953L337.13 152.948ZM355.592 153.152C355.592 149.837 353.603 147.389 350.441 147.389C347.279 147.389 345.137 149.99 345.137 153.152L345.137 162.893L355.592 162.893L355.592 153.152ZM337.13 116.772L337.13 107.592L378.389 107.592L378.389 116.772L359.723 116.772C361.916 120.036 361.916 125.187 361.916 125.187C361.916 132.735 357.632 138.345 350.084 138.345L337.13 138.345L337.13 129.981L349.115 129.981C352.634 129.981 354.164 127.023 354.164 123.606C354.164 120.24 352.583 116.772 349.115 116.772L337.13 116.772ZM378.389 75.2524L369.872 78.4654L369.872 93.6634L378.389 96.8764L378.389 105.546L337.13 90.3995L337.13 80.8115L378.389 66.5824L378.389 75.2524ZM362.273 90.8074L362.273 81.3214L349.727 86.0644L362.273 90.8074Z" fill="white"/>
</svg>
