<svg width="715" height="614" viewBox="0 0 715 614" fill="none" xmlns="http://www.w3.org/2000/svg">
<path fill-rule="evenodd" clip-rule="evenodd" d="M449.318 454.321L714.424 248.453L592.266 105.832L449.318 208.086L449.318 0L266.055 0L266.056 208.086L123.108 105.832L0.949512 248.453L266.056 454.321L266.056 613.069H293.674L357.713 612.464L421.7 613.069H449.319L449.318 454.321ZM428.807 592.633L428.807 444.339L684.903 245.468L588.907 133.392L428.807 247.915L428.806 20.4356L286.567 20.4356L286.567 247.915L126.466 133.392L30.4709 245.468L286.567 444.339L286.567 592.633H293.579L357.713 592.027L421.796 592.633H428.807Z" fill="#FC565D"/>
</svg>
