<svg width="714" height="615" viewBox="0 0 714 615" fill="none" xmlns="http://www.w3.org/2000/svg">
<path fill-rule="evenodd" clip-rule="evenodd" d="M448.835 455.263L713.942 249.395L591.784 106.774L448.836 209.028L448.836 0.942656L265.573 0.942744L265.573 209.028L122.625 106.775L0.466677 249.396L265.573 455.263L265.573 614.011L293.191 614.011L357.229 613.406L421.217 614.011L448.835 614.011L448.835 455.263ZM428.324 593.575L428.324 445.282L684.42 246.41L588.425 134.334L428.324 248.858L428.324 21.3783L286.084 21.3783L286.084 248.858L125.984 134.335L29.9881 246.411L286.084 445.282L286.084 593.576L293.096 593.576L357.229 592.97L421.313 593.575L428.324 593.575Z" fill="#FFE600"/>
<path d="M337.499 504.16L337.499 494.572L378.758 494.572L378.758 503.242L355.145 503.242L378.758 512.473L378.758 519.307L355.094 528.538L378.758 528.538L378.758 537.208L337.499 537.208L337.499 527.671L369.986 515.89L337.499 504.16ZM378.758 462.252L370.241 465.465L370.241 480.663L378.758 483.876L378.758 492.546L337.499 477.399L337.499 467.811L378.758 453.582L378.758 462.252ZM362.642 477.807L362.642 468.321L350.096 473.064L362.642 477.807ZM378.758 442.772L378.758 451.544L337.499 451.544L337.499 422.27L345.761 422.27L345.761 442.772L378.758 442.772ZM378.758 397.855L370.241 401.068L370.241 416.266L378.758 419.479L378.758 428.149L337.499 413.002L337.499 403.414L378.758 389.185L378.758 397.855ZM362.642 413.41L362.642 403.924L350.096 408.667L362.642 413.41ZM357.134 361.482C359.327 357.912 362.54 355.923 366.212 355.923C374.321 355.923 379.523 362.298 379.523 372.192C379.523 381.321 374.066 389.379 366.212 389.379L365.396 389.379L365.396 380.76L366.212 380.76C369.884 380.811 371.414 376.119 371.363 372.6C371.363 368.877 369.119 364.95 366.263 365.052C362.795 365.205 360.857 366.99 360.857 374.538L353.972 374.538C353.768 368.316 351.677 365.919 349.229 365.919C346.577 365.919 344.945 369.693 344.945 372.192C344.945 375.966 346.832 379.026 349.943 379.026L350.759 379.026L350.759 387.645L349.943 387.645C342.089 387.645 336.632 382.188 336.632 373.059C336.632 363.165 341.885 356.79 349.943 356.79C352.85 356.79 355.298 358.575 357.134 361.482ZM337.499 352.383L337.499 343.713L364.478 343.713L337.499 323.721L337.499 315.051L378.758 315.051L378.758 323.721L351.575 323.721L378.758 343.713L378.758 352.383L337.499 352.383ZM337.499 301.169L353.105 301.169L353.105 283.778L337.499 283.778L337.499 274.598L378.758 274.598L378.758 283.778L361.367 283.778L361.367 301.169L378.758 301.169L378.758 310.298L337.499 310.298L337.499 301.169ZM337.499 219.227L337.499 209.639L378.758 209.639L378.758 218.309L355.145 218.309L378.758 227.54L378.758 234.374L355.094 243.605L378.758 243.605L378.758 252.275L337.499 252.275L337.499 242.738L369.986 230.957L337.499 219.227ZM337.499 204.911L337.499 175.433L345.761 175.433L345.761 195.986L353.105 195.986L353.207 178.85L361.418 178.85L361.367 195.986L370.547 195.986L370.547 175.433L378.758 175.433L378.758 204.911L337.499 204.911ZM337.499 153.215C337.499 144.29 344.333 139.649 350.81 139.649C359.327 139.649 363.968 146.075 363.968 152.858L363.968 163.16L378.758 163.16L378.758 172.289L337.499 172.289L337.499 166.22L337.499 153.215ZM355.961 153.419C355.961 150.104 353.972 147.656 350.81 147.656C347.648 147.656 345.506 150.257 345.506 153.419L345.506 163.16L355.961 163.16L355.961 153.419ZM337.499 117.039L337.499 107.859L378.758 107.859L378.758 117.039L360.092 117.039C362.285 120.303 362.285 125.454 362.285 125.454C362.285 133.002 358.001 138.612 350.453 138.612L337.499 138.612L337.499 130.248L349.484 130.248C353.003 130.248 354.533 127.29 354.533 123.873C354.533 120.507 352.952 117.039 349.484 117.039L337.499 117.039ZM378.758 75.519L370.241 78.732L370.241 93.93L378.758 97.143L378.758 105.813L337.499 90.6661L337.499 81.0781L378.758 66.849L378.758 75.519ZM362.642 91.074L362.642 81.588L350.096 86.331L362.642 91.074Z" fill="white"/>
</svg>
