<svg width="714" height="614" viewBox="0 0 714 614" fill="none" xmlns="http://www.w3.org/2000/svg">
<path fill-rule="evenodd" clip-rule="evenodd" d="M448.792 454.321L713.899 248.453L591.74 105.832L448.792 208.085L448.793 0L265.53 0L265.53 208.085L122.582 105.832L0.423589 248.453L265.53 454.321L265.529 613.068H293.148L357.186 612.464L421.174 613.068H448.792L448.792 454.321ZM428.281 592.633L428.281 444.339L684.377 245.468L588.382 133.392L428.281 247.915L428.281 20.4356L286.041 20.4356L286.041 247.915L125.941 133.392L29.945 245.468L286.041 444.339L286.041 592.633H293.052L357.186 592.027L421.269 592.633H428.281Z" fill="#FFE600"/>
</svg>
